/* XPM */
static char *result[] = {
/* columns rows colors chars-per-pixel */
"50 50 123 2 ",
"   c #7B2E25",
".  c #9E2E1A",
"X  c #A12F1A",
"o  c #A4311A",
"O  c #AC341C",
"+  c #B2371C",
"@  c #B4391C",
"#  c #BB3C1D",
"$  c #852E24",
"%  c #8A3123",
"&  c #913323",
"*  c #993422",
"=  c #A33721",
"-  c #A73820",
";  c #AB3A20",
":  c #B33C20",
">  c #BD3F20",
",  c #C33F1E",
"<  c #C83F1E",
"1  c #C13F20",
"2  c #B3421B",
"3  c #BE401C",
"4  c #BD4C1D",
"5  c #AC4024",
"6  c #AE4923",
"7  c #B64022",
"8  c #BE4121",
"9  c #B34C25",
"0  c #C5401E",
"q  c #CB431E",
"w  c #C24D1D",
"e  c #CC4C1F",
"r  c #D2471E",
"t  c #D4491F",
"y  c #DA4A1F",
"u  c #C4511E",
"i  c #CB531E",
"p  c #D4541F",
"a  c #DB591F",
"s  c #E55A1D",
"d  c #EA5D1C",
"f  c #EA611D",
"g  c #F3631D",
"h  c #F57B1F",
"j  c #C54120",
"k  c #CD4420",
"l  c #CE4820",
"z  c #D24620",
"x  c #D94720",
"c  c #D54A20",
"v  c #DC4C21",
"b  c #C75322",
"n  c #CB592D",
"m  c #D55621",
"M  c #D95420",
"N  c #DC5B22",
"B  c #E14D21",
"V  c #E45122",
"C  c #EC5323",
"Z  c #E35C21",
"A  c #EB5C23",
"S  c #E2562B",
"D  c #F15524",
"F  c #F15B24",
"G  c #DA6720",
"H  c #DC6B23",
"J  c #CE623D",
"K  c #E46122",
"L  c #EC6322",
"P  c #E26C21",
"I  c #F36523",
"U  c #F96624",
"Y  c #F36C23",
"T  c #F3622C",
"R  c #F16D2F",
"E  c #E47322",
"W  c #ED7223",
"Q  c #E97A21",
"!  c #F47424",
"~  c #F47B23",
"^  c #F4752C",
"/  c #F57E2B",
"(  c #E66130",
")  c #EB6D30",
"_  c #F37E57",
"`  c #F68424",
"'  c #F68B23",
"]  c #F68929",
"[  c #F68034",
"{  c #F48A38",
"}  c #F88F39",
"|  c #F79334",
" . c #F8973A",
".. c #E68243",
"X. c #F78B44",
"o. c #F89A40",
"O. c #F7964E",
"+. c #F59451",
"@. c #F89F51",
"#. c #F9A554",
"$. c #E79A6E",
"%. c #F89467",
"&. c #F89E6E",
"*. c #F9B474",
"=. c #F9B47B",
"-. c #F7AC87",
";. c #F9B283",
":. c #FAB982",
">. c #EAAC92",
",. c #F9BA9D",
"<. c #E9B9A6",
"1. c #FBC094",
"2. c #FAC69E",
"3. c #F9CEA2",
"4. c #FCD3AC",
"5. c #FBD8B7",
"6. c #FCDABB",
"7. c #FDD8C8",
"8. c #FDE0C3",
"9. c #FDE9D5",
"0. c #FCEBD8",
"q. c #FEEDE2",
"w. c None",
/* pixels */
"w.w.w.w.w.w.w.w.w.w.w.w.w.w.w.w.w.w.w.w.w.w.w.w.w.w.w.w.w.w.w.w.w.w.w.w.w.w.w.w.w.w.w.w.w.w.w.w.w.w.",
"w.w.w.w.w.w.w.w.w.w.w.w.w.w.w.w.w.w.w.w.w.w.w.w.w.w.w.w.w.w.w.w.w.w.w.w.w.w.w.w.w.w.w.w.w.w.w.w.w.w.",
"w.w.w.w.w.w.w.w.w.w.w.w.w.w.w.w.w.w.w.w.b A I I U I A V w.7 w.w.w.w.w.w.w.w.w.w.w.w.w.w.w.w.w.w.w.w.",
"w.w.w.w.w.w.w.w.w.w.w.w.w.w.w.w.w.N I U I g I I I I I F D D D V j w.w.w.w.w.w.w.w.w.w.w.w.w.w.w.w.w.",
"w.w.w.w.w.w.w.w.w.w.w.w.w.w.m U U Y ^ O.=.*.] ` ` ` ~ ! I F F D D D D w.w.w.w.w.w.w.w.w.w.w.w.w.w.w.",
"w.w.w.w.w.w.w.w.w.w.w.w.9 I I g / *.6.9.,.{ ~ ~ ! ! ! ! ! Y Y I F C D D l w.w.w.w.w.w.w.w.w.w.w.w.w.",
"w.w.w.w.w.w.w.w.w.w.w.L I I X.3.q.7.-.R d s a p m p a N V C C F F F D D C B 7 w.w.w.w.w.w.w.w.w.w.w.",
"w.w.w.w.w.w.w.w.w.w.Z I Y  .2.,.%.) m i 4 4 4 4 w w w 4 2 O 1 v D D D D V B B 8 w.w.w.w.w.w.w.w.w.w.",
"w.w.w.w.w.w.w.w.6 L I ~ ` ! I s i 4 4 p a f Y ! ! ! ! ! K q + X O r C D C B B B v w.w.w.w.w.w.w.w.w.",
"w.w.w.w.w.w.w.6 Z L ~ ~ Y L N 4 u N f ! O.@.' ' ' ' ` ~ ! L C c # o + y B v B B B B w.w.w.w.w.w.w.w.",
"w.w.w.w.w.w.w.s A ~ ~ I d w 4 a Y X.:.9.8.o.' ~ ! L Z Z A D F D D y @ X # q r v B B v w.w.w.w.w.w.w.",
"w.w.w.w.w.w.x Z W ~ Y Z w u s ^ ;.9.9.*.| ~ Y Y d w u w j D D D D D C , o # q x v B B z w.w.w.w.w.w.",
"w.w.w.w.w.x y K ~ I K 4 i R &.5.4.#.' h Y I U Z i P e , q D D D D D C D x X O k k x v v : w.w.w.w.w.",
"w.w.w.w.w.y x L I Z w i L / #. .' ` ! I I I L i W V , + j D D D D D D D C , X # k k t v q w.w.w.w.w.",
"w.w.w.w.c x v F A 4 b L ^ ' ' ' ~ I I L I A n W F B , + k D D D D D D D B B , X # z k y z q w.w.w.w.",
"w.w.w.w.y c V C 1 @ Z ~ ' ' ' ! Y I I I U J <.T D B < # 1 F D D D D D D B B y O X 0 q q k r w.w.w.w.",
"w.w.w.x x e A q . k Y ' ' ` ! I I I Y I m >._ d D B 1 + < D D D D D D C B B B q o X , q q k # w.w.w.",
"w.w.% x j x C O o A ~ ' ' Y I I I I I p H ( C C D B 1 + < D D D D D D B B B B x # . O < k r q w.w.w.",
"w.w.7 q < x q . k ! ' ' I F F I I U M G Z # C C D V < + z D D D D D C v v B B B z X o # k q 0 o w.w.",
"w.w.w.0 # z O O A ' ' I D C D D C e H r + # Z D D V 1 + < D D D C C B B B B B B v , X o 0 j 0 < w.w.",
"w.w.q 0 # 0 o 3 ! ' ~ D D D D D r G p # + q P D D B 1 + z D D D C B B B B B B B B z o O + 1 < q w.w.",
"w.0 z # , @ . c ` ` I D D D D c u e < , z V ..D D C 1 + 1 D D D B B B B B v B B B y + X + 1 0 1   w.",
"w.j k @ # + . M ` ~ D D D D D V V C C C C S <.F D B 1 # k D B B B v B B B B v B B B # X O : < < % w.",
"w.q r @ # O X M Q L C D D D D D D D C D D S $.D D V 1 + 1 B B B B B B v B B B B B B # X O + < 1 * w.",
"w.r q @ # O o p E B B D D D D D D D D D D V E A D B , + , B B B B v B B B y B B B t # X O + 1 < = w.",
"w.q q @ + o o t P B B B B C C D C D C D C B E F D B < + , B B B B B B B B s B v c x # X O O , 1 w.w.",
"w.q q @ + o o e G v B B B B B B B V B B B t E F D B , + < B B B B B B B B B v y t z # X O O , 0 = w.",
"w.k z @ + O . q c B B B B B B B B B B B B t E F D B , + , B B B v B B B B x z r c q @ . O O # < & w.",
"w.# q # + O X 0 l v B B B B B B B B B B B c E F D B , + , B B B B B B v y r r r z 0 + X O + , 0 % w.",
"w.@ q # + O X @ k z v B B B B B B B B v B c E F D y , + , B B B B v y t r r r r q q o o O O , w.w.w.",
"w.- 0 # + O o + q r x B B B y B B B B B B t E F D y , + , s B B v t r r r r r r q 1 o o O O , q w.w.",
"w.w.3 3 + O O o 0 k q c B B B B B v B B B y E F D y , + , B y r z e r r r r z q 0 + X O O + 1 , w.w.",
"w.w.@ j + O O X # k q q x B B B B B B v B c E F D t , + , y r r r r r r r c q 0 , o X O O # 0 w.w.w.",
"w.w.$ 0 # O O o . , j q k c v B v B B B B c E F D x < @ # t r r r r r r q q 0 0 + . O + O # 0 w.w.w.",
"w.w.w.q 3 + O O . @ j j 0 0 q v v v v x y q E D C x , + , r r r r r r r q 0 0 # o o + O + , : w.w.w.",
"w.w.w.= q # O O o o # 0 0 0 j 0 q l z z r e E D D z j + # r r r r k q 0 < j 1 O X o O O # q w.w.w.w.",
"w.w.w.w., # O O O o o 1 < 0 0 1 < 0 q q q k P D C z j @ , z z q q 0 < j j < @ . o O O + 0 0 w.w.w.w.",
"w.w.w.w.w.q # O O O o o # 0 j < 1 , j , 0 , P D C k 1 + # < < < < 0 1 0 j + X O + O + # 0 w.w.w.w.w.",
"w.w.w.w.w.0 0 + O O O X o < 0 j 0 < j , j 0 K C v z , + # j 0 1 j 0 , 0 # X o O O O # 0 w.w.w.w.w.w.",
"w.w.w.w.w.w., # O O O O o o # 0 0 , 0 j j 3 Z V x q + @ @ < 1 q 0 0 > O . o O O O + j # w.w.w.w.w.w.",
"w.w.w.w.w.w.w.q # O O O O o o + , 0 j 0 0 # k q 0 0 + # @ j j 0 j # O X o O O O + 0 0 w.w.w.w.w.w.w.",
"w.w.w.w.w.w.w.w.0 # O O O O o o o @ # 0 0 0 @ # # # # # , 0 , @ O X X O O O O + , 0 w.w.w.w.w.w.w.w.",
"w.w.w.w.w.w.w.w.w.q # + O O O O o . o O @ # , < 0 < , # # O o . X o O O O O O 0 , w.w.w.w.w.w.w.w.w.",
"w.w.w.w.w.w.w.w.w.w.# # + + O O + O o o X X X o o X . o . o o O O O O O O @ < - w.w.w.w.w.w.w.w.w.w.",
"w.w.w.w.w.w.w.w.w.w.w.1 j + O O O + O O O o o o o o o O O O O O + O O O # 0 w.w.w.w.w.w.w.w.w.w.w.w.",
"w.w.w.w.w.w.w.w.w.w.w.w.w.0 0 @ O O O O + + + O O + + O + O O O O + # 0 + w.w.w.w.w.w.w.w.w.w.w.w.w.",
"w.w.w.w.w.w.w.w.w.w.w.w.w.w.; q , # + O O O O O O o O O O O + @ # 0 , w.w.w.w.w.w.w.w.w.w.w.w.w.w.w.",
"w.w.w.w.w.w.w.w.w.w.w.w.w.w.w.w.w.: , < , # # @ # # # # # 0 0 w.w.w.w.w.w.w.w.w.w.w.w.w.w.w.w.w.w.w.",
"w.w.w.w.w.w.w.w.w.w.w.w.w.w.w.w.w.w.w.w.w.# , , 0 0 < # O & w.w.w.w.w.w.w.w.w.w.w.w.w.w.w.w.w.w.w.w.",
"w.w.w.w.w.w.w.w.w.w.w.w.w.w.w.w.w.w.w.w.w.w.w.w.w.w.w.w.w.w.w.w.w.w.w.w.w.w.w.w.w.w.w.w.w.w.w.w.w.w."
};
