/* XPM */
static char *_360b9c1079b4d3da5331168cf6cabe2D1hI0tv6tYItA5XW[] = {
/* columns rows colors chars-per-pixel */
"50 50 165 2 ",
"   c None",
".  c #040405",
"X  c #06070A",
"o  c #09070A",
"O  c #07090B",
"+  c #090A0D",
"@  c #0C0D11",
"#  c #0F1113",
"$  c #0F1018",
"%  c #111216",
"&  c #14151B",
"*  c #16181B",
"=  c #161B25",
"-  c #1A1C23",
";  c #171E28",
":  c #181D28",
">  c #231F22",
",  c #1C2224",
"<  c #1E2629",
"1  c #1F282C",
"2  c #242225",
"3  c #2A2523",
"4  c #2D2925",
"5  c #22262B",
"6  c #232B2D",
"7  c #292B2D",
"8  c #362F26",
"9  c #382F25",
"0  c #312C2B",
"q  c #363026",
"w  c #3F3323",
"e  c #36332D",
"r  c #3D3429",
"t  c #252E33",
"y  c #2A2D35",
"u  c #292C38",
"i  c #253035",
"p  c #2A3133",
"a  c #2E353A",
"s  c #343335",
"d  c #393532",
"f  c #3B3936",
"g  c #333639",
"h  c #383338",
"j  c #32393D",
"k  c #3E3D3C",
"l  c #403323",
"z  c #443629",
"x  c #443929",
"c  c #43382A",
"v  c #493F2A",
"b  c #403D35",
"n  c #423E38",
"m  c #4E402C",
"M  c #53452C",
"N  c #5B462C",
"B  c #5A492D",
"V  c #444037",
"C  c #4A4437",
"Z  c #464039",
"A  c #4B443B",
"S  c #51463B",
"D  c #544D3B",
"F  c #5C4F3C",
"G  c #57503B",
"H  c #5B513B",
"J  c #614C2C",
"K  c #654F2F",
"L  c #69532E",
"P  c #755B2E",
"I  c #785D2E",
"U  c #61563C",
"Y  c #67593E",
"T  c #68593C",
"R  c #715B30",
"E  c #795B33",
"W  c #705F3D",
"Q  c #75643E",
"!  c #7D6B3F",
"~  c #383F43",
"^  c #363C43",
"/  c #3A4145",
"(  c #3E464C",
")  c #3D4A4F",
"_  c #3D4B52",
"`  c #41494F",
"'  c #414D52",
"]  c #494F53",
"[  c #425154",
"{  c #495054",
"}  c #4E565A",
"|  c #50585E",
" . c #655940",
".. c #6D5D40",
"X. c #756441",
"o. c #7E6B41",
"O. c #525E68",
"+. c #536066",
"@. c #55636C",
"#. c #59666C",
"$. c #5A696F",
"%. c #586370",
"&. c #5A6970",
"*. c #606B6F",
"=. c #656F76",
"-. c #657077",
";. c #647279",
":. c #6B777E",
">. c #6C787F",
",. c #8E6B32",
"<. c #886831",
"1. c #836532",
"2. c #977234",
"3. c #9A7133",
"4. c #9F7834",
"5. c #A47935",
"6. c #AB7E35",
"7. c #8C7443",
"8. c #8F7944",
"9. c #947D45",
"0. c #B68536",
"q. c #B58535",
"w. c #B98736",
"e. c #BA8735",
"r. c #BE8A33",
"t. c #BE8A35",
"y. c #BC8935",
"u. c #B68738",
"i. c #BA863A",
"p. c #BC8838",
"a. c #BC8939",
"s. c #C08A33",
"d. c #C08A34",
"f. c #C18A34",
"g. c #C08935",
"h. c #9C8447",
"j. c #978248",
"k. c #A38645",
"l. c #AA8C47",
"z. c #A68A4A",
"x. c #AA904A",
"c. c #B3944B",
"v. c #BC974B",
"b. c #B5984A",
"n. c #BD9E4D",
"m. c #C29E4A",
"M. c #C5A34D",
"N. c #CEA74F",
"B. c #CFA84D",
"V. c #D3AC4D",
"C. c #DBAF4F",
"Z. c #DCB44F",
"A. c #DFB84F",
"S. c #C7A250",
"D. c #D2AB51",
"F. c #D8AF52",
"G. c #D7B250",
"H. c #DCB350",
"J. c #E3B64E",
"K. c #E4B84C",
"L. c #E1B752",
"P. c #E0B853",
"I. c #6C7B83",
"U. c #717F87",
"Y. c #717F88",
/* pixels */
"                                                                                                    ",
"                                . X X X X X o + X . o o O o X X + . .                               ",
"O O O O O O O O O O O O O O O . X = = = - 8 l 3 @ @ > l w : = = = @ . O O O O O O O O O + X O O + O ",
"7 t t t t t t t t t 6 7 t t t , O = ; : : 0 L M % @ e E r : : : = @ * t t t t t t t t t t t t t t t ",
"t 6 6 6 1 1 1 1 < < , < < , 6 , O , v 2 : : , , $ @ > 2 : : , r 7 # * p < , < , < , < < 1 1 1 6 6 t ",
"7 p i t t i t t i i i i t 6 6 , o 3 i.5.N > : : $ @ : : - x 2.p.c # * t , t i i t i i i t i i i y t ",
"t i i i i i i i i i i i i 6 , , X 3 p.g.i.3.N 2 $ @ ; v ,.e.y.g.x # * t , t i i i i i i i i i i i i ",
"7 i i i i i i i i i i i i 1 6 , + 2 p.g.g.r.y.B $ + z w.r.g.g.g.r # * 1 , t i i i i i i i i i i i i ",
"7 p i i i i i i i i i i p 1 1 , X 3 e.r.f.f.t.J $ + z g.g.g.f.g.c @ * y , t i i i i i i i i i i i i ",
"t p i i i i i i i i i i i 1 1 , O - P q.r.t.t.J $ @ z g.g.g.w.<.5 @ * t , i i i i i i i i i i i i i ",
"t i i i i i i i i i i i i 6 6 , + = ; 0 L 5.y.J $ @ z p.6.I q , = @ * p , t i i i i i i i i i i i i ",
"6 i i i i i i i i i i i i 1 6 , X = ; ; ; q P N $ + r 1.z , ; = , # * 6 * i i i i i i i i i i i i i ",
"p i i i i i i i i i i i i 1 6 , + > J 4 : - : : $ + , ; ; = 2 M e # * p , i i i i i i i i i i i i i ",
"6 i i i i i i i i i i i i 6 6 , + 2 u.2.B 2 : : $ @ ; : 2 v ,.q.r # * i , i i i i i i i i i i i i i ",
"p i i p p p p p p p p p p 1 6 , + 3 p.y.y.6.K 2 $ + , M 4.y.y.g.w # , 6 , 6 p p p p i p p p i i i i ",
"6 p 6 1 < 1 , 1 , , < < , , 6 , O 2 u.e.e.e.u.B @ @ r q.q.w.w.p.v # * 6 , , < < , , < < < , 6 < t i ",
"6 p 7 7 p 6 p p p 6 p t 7 t p 2 O - 8 8 9 9 9 2 $ @ > 8 9 8 8 8 > $ & y 7 7 p t t p 6 6 p p p p i i ",
"# # # # # # # # # # # # # # # + . + @ + @ + + @ X . @ + @ + + @ + o O % % % # # # # # # # # # # % # ",
"[ [ ] ] [ [ [ { ] ] { { ] ] { g O * - - - - - - $ + - - - - = - - @ 5 ] { { { { { { ] { { { { [ ] ] ",
">.U.U.U.U.U.U.U.U.U.U.U.U.U.U.| @ s z.Q s u u u - % y u u y U z.A * ~ Y.U.U.U.U.U.U.U.U.U.U.U.U.U.U.",
">.U.U.U.U.U.U.U.U.U.U.U.I.Y.Y.| @ d L.K.z.b u u - % y y h 8.Z.J.F * ~ U.U.U.Y.U.U.U.U.U.U.U.U.U.U.U.",
"+.#.#.#.#.*.$.#.#.#.#.#.#.#.#.` + d L.K.J.m.Y y - % u S c.J.K.K.F * s #.#.#.#.#.#.$.#.#.#.$.#.$.#.#.",
"_ [ [ [ [ _ _ [ [ _ [ _ [ [ [ a # d L.K.K.K.J. .- % n F.K.K.J.K.H * 1 [ [ [ [ [ [ _ [ [ [ _ [ _ [ [ ",
"#.$.$.*.$.$.$.$.$.$.$.*.&.&.&.` @ d L.K.K.K.K.! * $ H J.K.K.K.K.D * a $.$.$.$.$.*.$.$.$.$.*.*.$.#.#.",
"#.$.&.$.$.$.$.$.$.$.$.$.&.$.&.' @ e L.K.K.K.K.! - % D K.K.K.K.K.F & g $.$.$.$.$.&.$.$.$.$.$.$.$.$.#.",
"#.$.$.$.$.$.$.$.$.$.$.$.$.$.&.' + s c.K.K.K.K.! - % D J.K.K.K.S.n & a $.$.$.$.$.$.$.$.$.$.$.$.$.$.$.",
"@.$.$.$.$.$.$.$.$.$.$.$.$.$.&.` @ u f 9.J.K.K.! - % F J.J.J.x.C u * a &.$.$.$.$.$.$.$.$.$.$.$.$.$.#.",
"@.$.$.$.$.$.$.$.$.&.$.$.$.$.&.` + t u u H M.J.o.* % F J.V.Q a u u & a #.$.$.$.$.$.$.$.$.$.&.$.$.$.$.",
"$.$.$.&.$.$.$.$.&.$.$.&.&.&.&.` @ 7 u u u n l.X.- $ D c.D u u y u * g $.$.$.$.&.$.$.$.$.&.$.$.$.$.$.",
"#.$.$.$.$.$.$.$.&.&.$.#.#.#.&.' @ u u u u u s h = % g s y u y y y & a #.$.$.$.&.$.$.$.$.&.&.$.$.$.#.",
"` [ [ [ [ [ [ [ [ [ [ [ [ ' ' j @ d x.C u u u u * % u u u u d j.D & t [ { { [ [ [ [ { [ [ [ [ [ [ [ ",
") _ _ _ _ _ _ _ ' _ _ _ ' _ ' a + d L.V.T u u u - % u u u C M.K.H * 6 _ _ _ _ _ _ _ _ _ _ _ _ _ ) ) ",
":.I.I.I.I.I.I.I.Y.I.I.I.I.I.Y.} + d L.K.L.k.n y * & u h 7.C.J.K.F * ~ U.I.I.Y.I.I.Y.I.I.I.I.Y.I.I.I.",
"I.U.Y.Y.Y.Y.Y.Y.Y.Y.Y.I.Y.Y.I.+.@ d L.K.K.K.V.` - % h m.K.K.K.J.F * ^ U.Y.I.Y.Y.Y.Y.I.I.Y.Y.Y.Y.Y.U.",
";.>.I.I.;.I.>.>.I.I.I.;.I.I.I.} @ d J.K.K.K.K.1.* $ F J.J.K.J.J.F & ^ I.I.I.I.I.I.I.I.I.I.I.I.I.I.;.",
"( ) _ ) _ _ _ _ _ _ _ _ _ _ _ i + d L.K.K.J.K.! - $ F J.K.K.K.J.F & 5 ( ) ) ) _ _ _ _ _ _ _ _ _ _ ) ",
"O.@.@.@.@.@.@.@.@.@.@.@.@.@.@.( @ s N.K.K.K.K.o.- % D K.K.J.K.Z.S * a @.@.@.@.@.@.@.@.@.O.@.@.@.@.@.",
"@.$.$.$.$.$.$.$.$.$.$.$.$.$.$._ @ 7 U n.K.K.K.! - % D J.K.K.N.X.u & a &.$.&.$.$.$.$.$.$.@.&.&.&.$.#.",
"@.&.&.$.$.$.$.$.$.$.$.$.$.$.$.) @ t y f 8.Z.K.o.- $ F J.J.k.C y u & g %.$.$.$.$.$.$.$.$.$.@.&.&.$.#.",
"@.&.$.$.$.$.$.$.$.$.$.$.$.$.$.) @ u u y h T B.! * $ F C.7.d u u u * g %.$.$.&.$.$.$.$.$.$.&.&.&.$.$.",
"#.$.$.$.$.$.$.$.$.$.$.$.$.$.$.` @ u u u u u h C - % k V u u u u u & a $.$.$.$.$.$.$.$.$.$.$.$.$.$.#.",
"#.$.$.$.$.$.$.$.$.$.$.$.$.$.$.) + s Q s u u u u = % u u u u g H A & a $.$.$.$.$.$.$.$.$.$.$.$.$.$.$.",
"@.#.#.#.$.#.#.#.$.$.$.#.#.#.$.` @ s J.l.b y u u * % u u u h 9.G.F & a #.$.#.#.#.&.$.$.#.#.#.$.#.#.#.",
"` _ [ ` [ ` [ [ _ _ _ [ [ ) [ g @ d A.K.M.T s u - % u y D b.J.K.H & 5 _ [ ' [ { _ _ _ [ [ [ _ [ ' [ ",
"*.-.;.;.=.-.-.;.-.-.-.-.-.-.-.{ + d L.K.K.L.9.u - % u Q Z.J.J.L.F & j ;.;.;.;.;.-.-.-.-.-.;.;.;.;.-.",
">.U.U.Y.U.U.U.U.U.U.U.U.U.U.U.| @ s L.J.K.K.K.o.- $ F K.K.K.K.K.F & / U.U.U.U.U.U.U.U.U.U.U.Y.Y.U.>.",
"$.=.-.-.=.=.=.-.-.-.=.=.=.*.-.[ @ s n.m.m.m.m...- $ S m.m.m.m.n.S * j -.=.=.-.-.-.-.-.=.=.=.-.-.-.=.",
"# # # # # + # # # # @ # # # # + @ > 7 7 7 0 7 5 - @ 5 7 4 7 7 7 6 % X # + # # # # % # # # % + # # @ ",
"                                . o X X X X X X . . O o X O X X X .                                 ",
"                                                                                                    "
};
