/* XPM */
static char *_c3ca41421ff44538be6bdbeedcf074fXZKdSLunhZv2e7hK[] = {
/* columns rows colors chars-per-pixel */
"50 50 94 2 ",
"   c #8F8586",
".  c #9E9395",
"X  c #A09698",
"o  c #A19697",
"O  c #A09597",
"+  c #A09697",
"@  c #A19798",
"#  c #827779",
"$  c #908586",
"%  c #9A9091",
"&  c #948B8B",
"*  c #9C9192",
"=  c #9B9092",
"-  c #9B9192",
";  c #9A9192",
":  c #9B9293",
">  c #9B9292",
",  c #7C7172",
"<  c #8A7F81",
"1  c #958B8C",
"2  c #968D8D",
"3  c #9C9092",
"4  c #9B9093",
"5  c #9B9091",
"6  c #9C9293",
"7  c #7B7072",
"8  c #8A8081",
"9  c #968C8D",
"0  c #9B9193",
"q  c #7B7172",
"w  c #958C8C",
"e  c #928889",
"r  c #918788",
"t  c #978D8E",
"y  c #8E8485",
"u  c #8D8384",
"i  c #948A8B",
"p  c #908687",
"a  c #988E8F",
"s  c #9C9193",
"d  c #9C9194",
"f  c #93898A",
"g  c #998F90",
"h  c #968B8B",
"j  c #958B8B",
"k  c #9A8E91",
"l  c #998F91",
"z  c #897F80",
"x  c #938888",
"c  c #716767",
"v  c #776B6D",
"b  c #756B6D",
"n  c #756B6C",
"m  c #766C6D",
"M  c #73696A",
"N  c #6D6363",
"B  c #928888",
"V  c #978C8D",
"C  c #968B8D",
"Z  c #877D7E",
"A  c #908686",
"S  c #978D8D",
"D  c #968C8C",
"F  c #7A7071",
"G  c #958B8A",
"H  c #958A8A",
"J  c #948A8A",
"K  c #898080",
"L  c #9A9092",
"P  c #887F7F",
"I  c #8D8485",
"U  c #897F7F",
"Y  c #8F8385",
"T  c #8E8486",
"R  c #928688",
"E  c #8D8385",
"W  c #8F8585",
"Q  c #908486",
"!  c #887E7E",
"~  c #918687",
"^  c #958A8C",
"/  c #968A8D",
"(  c #8C8282",
")  c #918587",
"_  c #8F8486",
"`  c #8C8384",
"'  c #8C8383",
"]  c #8E8586",
"[  c #9D9193",
"{  c #9A9090",
"}  c #9A8F90",
"|  c #796F6F",
" . c #998F8F",
".. c #94898A",
/* pixels */
"  . X o o o o o o o o o o o o o o o o o o o o o o o O + @ o o o o o o o o o + + X # $ O o o o o o % ",
"& * = - - - - - - - - - - - - - - - - - - - - - - - % ; : - - - - - - - - - - - > , < * - - - - - 1 ",
"2 3 4 - - - - - - - - - - - - - - - - - - 5 * - - - - - - - - - - - - - - - - - 6 7 8 - - - - - - 1 ",
"9 * 0 - - - - - - - - - - - - - - - - - 6 - - - - 6 - - - - - - - - - - - - - - 6 q 8 - - - - - - w ",
"9 * 0 - - - - - - - - - - - - - - - - - - % e r t - - - - - - - - - - - - - - - 6 q 8 - - - - - - w ",
"9 * 0 - - - - - - - - - - - - - - - - % 1   y u e 6 - - - - - - - - - - - - - - 6 q 8 - - - - - - w ",
"9 * 0 - - - - - - - - - - - - - - - 6 i u y u p a - - - - - - - - - - - - - - - 6 q 8 - - - - - - w ",
"9 * 0 - - - - - - - - - - - - - - - - r y p a % - - - - - - - - - - - - - - - - 6 q 8 - - - - - - w ",
"9 s - - - - - - - - - - - - - - a e r   u y p e i t a % - - - - - - - - - - - - 6 q 8 - - - - - - w ",
"9 d - - - - - - - - - - - - - - 9 y y   e e e f r y y y r 1 - - - - - - - - - - 6 q 8 - - - - - - w ",
"9 d - - - - - - - - - - - - - - - % % - - - - - g i   y y e - - - - - - - - - - 6 q 8 - - - - - - w ",
"9 d - - - - - - - - - - - - - 6 - - - - - - g   u u y p a - - - - - - - - - - - 6 q 8 - - - - - - 1 ",
"9 d - - - - - - - - - - - - - - - - - - - - 9 y   p r 1 - - - - - - - - - - - - 6 q 8 - - - - - - 1 ",
"9 d - - - - - - - - - - - - - - - - - - - - 6 f u u y u g - - - - - - - - - - - 6 q 8 - - - - - - 1 ",
"9 d - - - - - - - - - - - - - - - - - - - - - 9   p i a - - - - - - - - - - - - 6 q 8 % - - - - - h ",
"9 d - - - - - - - - - - - - - - - - - - - - - - - - - 6 6 - - - - - - - - - - - 6 q 8 % - - - - - j ",
"9 d - - - - - - - - - - - - - - - - - - - - - - - - - - - - - - - - - - - - - - 6 q 8 % - - - - - j ",
"j k l g g g g g g g g g g g g g g g g g g g g g g g g g g g g g g g g g g g g g % q z g g g g g g x ",
"c v b n n n n n n n n n n n n n n n n n n n n n n n n n n n n n n n n n n n n n m M n n n n n n n N ",
"B V C 9 9 9 9 9 9 9 9 9 9 9 9 9 9 9 9 9 9 9 9 9 9 9 9 9 9 9 9 9 9 9 9 9 9 9 9 9 t q Z 9 9 9 9 9 9 A ",
"S s 0 - - - - - - - - - - - - - - - - - - - - - - - - - - - - - - - - - - - - - 6 q 8 - - - - - - j ",
"S s 0 - - - - - - - - - - - - - - - - - - - - - - - - - - - - - - - - - - - - - 6 q 8 - - - - - - j ",
"S s 0 - - - - - - - - - - - - - - - - - - - - - - - - - - - - - - - - - - - - - 6 q 8 - - - - - - j ",
"D * 0 - - - - - - - - - - - - - - - - - - - - - - - - - - - - - - - - - - - - - 6 F z - - - - - - G ",
"D * 0 - - - - - - - - - - - - - - - - - - - - - - - - - - - - - - - - - - - - - 6 q 8 - - - - - - G ",
"D * 0 - - - - - - - - - - - - - - - - - - - - - - - - - - - - - - - - - - - - - 6 q 8 - - - - - - H ",
"J - ; - - - - - - - - - - - - - - - 6 - - - - - - - - - - - - - - - - - - - - - 6 q 8 - - - - - - G ",
"K 1 L - - - - - - - - - - - - - - - - - - - - - - - - - - - - - - - - - - - - - 6 q 8 - - - - - - G ",
"P y I i g a - 6 - - - - - - - - - - 6 % a t - - - - - - - - - - - - - - - - - - 6 q 8 - - - - - - G ",
"U Y T y y u   e 9 g - - - - - g i   y u u u g - - - - - - - - - - - - - - - - - 6 q 8 % - - - - - G ",
"i R E y y u r r   p e 9 a t 1 i f t a g a g - - - - - - - - - - - - - - - - - - 6 q 8 % - - - - - G ",
"W Q T u   f % - % % - - - - - - - - - - - - - - - - - - - - - - - - - - - - - - 6 q 8 % - - - - - G ",
"! ~ ^ a - - - - - - - - - - - - - - - - - - - - - - - - - - - - - - - - - - - - 6 q 8 - - - - - - C ",
"p = L % g a a g - % 6 - - - - - - - - - - - - - - - - - - - - - - - - - - - - - 6 q 8 - - - - - - / ",
"( ) _ y y u u     g - - - - - - - - - - - - - - - - - - - - - - - - - - - - - - 6 q 8 - - - - - - j ",
"P y I u   r f 9 a - - - - - - - - - - - - - - - - - - - - - - - - - - - - - - - 6 q 8 % - - - - - 1 ",
"P y I 1 - 6 6 - - - - - - - - - - - - - - - - - - - - - - - - - - - - - - - - - 6 q 8 % - - - - - 1 ",
"P y ` 9 % % - - - - - - - - - - - - - - - - - - - - - - - - - - - - - - - - - - 6 q 8 % - - - - - 1 ",
"U y T p f 9 % - - - - - - - - - - - - - - - - - - - - - - - - - - - - - - - - - 6 q 8 % - - - - - 1 ",
"U y T   u f % - - - - - - - - - - - - - - - - - - - - - - - - - - - - - - - - - 6 q 8 % - - - - - 1 ",
"' p ]   i % - - - - - - - - - - - - - - - - - - - - - - - - - - - - - - - - - - 6 q 8 % - - - - - 1 ",
"9 3 L % - - - - - - - - - - - - - - - - - - - - - - - - - - - - - - - - - - - - 6 q 8 - - - - - - 1 ",
"S 3 = - - - - - - - - - - - - - - - - - - - - - - - - - - - - - - - - - - - - - 6 q 8 - - - - - - 1 ",
"S [ 0 - - - - - - - - - - - - - - - - - - - - - - - - - - - - - - - - - - - - - 6 q 8 - - - - - - 1 ",
"9 * 0 - - - - - - - - - - - - - - - - - - - - - - - - - - - - - - - - - - - - - 6 q 8 - - - - - - 1 ",
"9 * 0 - - - - - - - - - - - - - - - - - - - - - - - - - - - - - - - - - - - - - 6 q 8 - - - - - - 1 ",
"9 * 0 - - - - - - - - - - - - - - - - - - - - - - - - - - - - - - - - - - - - - 6 q 8 - - - - - - 1 ",
"9 * 0 - - - - - - - - - - - - - - - - - - - - - - - - - - - - - - - - - - - - - 6 q 8 % - - - - - 1 ",
"9 * 0 - - - - - - - - - - - - - - - - - - - - - - - - - - - - - - - - - - - - - 6 q 8 % - - - - - 1 ",
"& 5 l l l % { { { } } } } } } } } } } } } } } } } } } } } } } } } } } } } } { { % | !  .} } } } } .."
};
