/* XPM */
static char *_a92f189581a4336bdb9dc90de9e66ca5OiktFtfLv3FDcyc[] = {
/* columns rows colors chars-per-pixel */
"50 50 139 2 ",
"   c None",
".  c #020001",
"X  c #0C0203",
"o  c #070A0B",
"O  c #0A0C0C",
"+  c #150300",
"@  c #1B0401",
"#  c #14020A",
"$  c #1C030E",
"%  c #100808",
"&  c #0E1314",
"*  c #121415",
"=  c #191312",
"-  c #101518",
";  c #151C1D",
":  c #1B1919",
">  c #240501",
",  c #2A0502",
"<  c #23030E",
"1  c #2E050A",
"2  c #320602",
"3  c #3A0701",
"4  c #3C0A03",
"5  c #370F09",
"6  c #38100B",
"7  c #240311",
"8  c #2A0414",
"9  c #310417",
"0  c #36051A",
"q  c #3D051D",
"w  c #261A19",
"e  c #171E21",
"r  c #192324",
"t  c #1D2628",
"y  c #1E282B",
"u  c #212D2F",
"i  c #232E31",
"p  c #263135",
"a  c #2B3A3F",
"s  c #410801",
"d  c #4C0A02",
"f  c #550B02",
"g  c #5C0C03",
"h  c #5C1007",
"j  c #5E120A",
"k  c #40061F",
"l  c #48071E",
"z  c #570914",
"x  c #630D02",
"c  c #6D0E03",
"v  c #730E03",
"b  c #7C0F03",
"n  c #750E0B",
"m  c #7D1003",
"M  c #600A19",
"N  c #440621",
"B  c #4E0726",
"V  c #510724",
"C  c #530729",
"Z  c #5D082D",
"A  c #610A20",
"S  c #61092F",
"D  c #700A2F",
"F  c #7D0D2D",
"G  c #650931",
"H  c #6C0934",
"J  c #740A36",
"K  c #7A0B34",
"L  c #740A38",
"P  c #2E3E43",
"I  c #324044",
"U  c #394346",
"Y  c #334449",
"T  c #3E4648",
"R  c #37494D",
"E  c #3A4D52",
"W  c #3D5156",
"Q  c #45494A",
"!  c #4B4D4D",
"~  c #41585D",
"^  c #455C63",
"/  c #486066",
"(  c #4A6369",
")  c #4D6770",
"_  c #4F6970",
"`  c #536F76",
"'  c #56737A",
"]  c #800F03",
"[  c #851003",
"{  c #8B1103",
"}  c #961303",
"|  c #9D1303",
" . c #880F1E",
".. c #97101F",
"X. c #9D111B",
"o. c #A41404",
"O. c #AD1504",
"+. c #A51409",
"@. c #AF140D",
"#. c #B51604",
"$. c #BD1704",
"%. c #B4150B",
"&. c #A41315",
"*. c #A91413",
"=. c #A11218",
"-. c #8E0F26",
";. c #850D2D",
":. c #8A0E2A",
">. c #920F23",
",. c #941022",
"<. c #800C30",
"1. c #61828D",
"2. c #658791",
"3. c #6B8F9A",
"4. c #6C909B",
"5. c #7297A4",
"6. c #7DA7B4",
"7. c #82ADBB",
"8. c #84B0BE",
"9. c #87B4C3",
"0. c #8DBCCC",
"q. c #92C2D3",
"w. c #95C7D8",
"e. c #96C8D9",
"r. c #9BCADA",
"t. c #A3CEDC",
"y. c #A6D1DE",
"u. c #B3D5DE",
"i. c #ACD4E1",
"p. c #B5D8E3",
"a. c #BBDCE6",
"s. c #C7E0E7",
"d. c #CBE5EB",
"f. c #CFE8ED",
"g. c #D3E7EC",
"h. c #E5F3F5",
"j. c #ECF4F3",
"k. c #F3F6F7",
"l. c #F6FCFB",
/* pixels */
"                                                                                                    ",
"                                                                                                    ",
"                                    . . X X X + + X + X X + + X . .                                 ",
"                                  . . 3 v { { { { { { { { { { c X . .                               ",
"                                . X d m o.#.#.#.#.#.#.#.#.$.#.o.x > . .                             ",
"                              X @ 4 { O.$.$.$.$.$.$.$.$.$.$.$.$.O.f , + .                           ",
"                              X 3 ] #.$.$.$.$.$.$.$.$.$.$.$.$.$.$.} c 3 X .                         ",
"                            . + f #.$.$.$.$.$.$.$.$.$.$.$.$.$.$.$.$.o.v 3 .                         ",
"                            . @ g $.$.$.$.$.#.| | } } | } } } } } } } b d .                         ",
"                            @ d { $.$.$.$.#.} d s s s s s s s s s s s 3 , . .                       ",
"                            > b $.$.$.$.#.} g % y a P P P P T ! ! ! Q U P a & .                     ",
"                            , ] $.$.$.$.| f o ; 1.0.q.q.w.t.s.j.k.j.g.p.q.0.P o .                   ",
"                            , b $.$.$.$.o.h & R 5.0.w.e.y.d.h.l.l.f.p.t.w.q.3.Y &                   ",
"                          . > ] $.$.$.$.| j ; ^ 2.7.q.w.t.a.d.g.f.i.t.r.e.w.9.^ &                   ",
"                  . + , , @ > ] $.$.$.$.| j e ^ ' 3.8.q.e.y.y.u.i.r.e.w.e.e.q.) -                   ",
"                . X 3 g x s 2 ] $.$.$.$.| j e ^ ( ' 4.6.0.q.q.q.q.q.q.q.q.q.0.) -                   ",
"              . X , v o.O.v 3 ] $.$.$.$.| j e ^ ( ( ` 1.7.7.7.7.7.7.7.7.7.7.6.^ &                   ",
"            . X , } #.$.O.v 3 ] $.$.$.$.| j ; E ^ ( ( ` ` ` ` ` ' ' ` ` ` ` ( p o                   ",
"            X 8 A @.$.$.O.v 3 ] $.$.$.$.| g o u E ^ ( ( ( ( ^ ( ( ( ( ( ( / p & .                   ",
"            # 0 F =.%.#.O.c 3 ] $.$.$.$.o.v , O i E / ( ( ( ( ( ( ( ~ W Y Y & . .                   ",
"            # 0 J :.=.%.o.c 3 ] $.$.$.$.#.| c @ * p W ~ ~ ~ ~ ~ ~ ~ R p : w o .                     ",
"            # q L K ;.>. .z 1 ] $.$.$.$.$.#.o.c > * y u u u u u u u r = , x @ .                     ",
"            # 0 L L J K D l 1 n $.$.$.$.$.$.#.o.g 4 5 6 6 5 6 6 6 6 6 s x | , .                     ",
"            # q L L L L H N 8 z X.%.$.$.$.$.$.#.| { { { [ { { { { [ { { | #.2 .                     ",
"            # 0 L L L L H N 7 V :.,.%.$.$.$.$.$.$.$.$.$.$.$.$.$.$.$.$.$.$.%.2 .                     ",
"            # q L L L L H N 7 B L <.@.$.$.$.$.$.$.$.$.$.$.$.$.$.$.$.$.$.#.&., .                     ",
"            # 0 L L L L H N 7 B L <.@.$.$.$.$.$.$.$.$.$.$.$.$.$.$.$.$.$.=.F < .                     ",
"            # 0 L L L L H N 7 B L K >.*.%.$.$.$.$.$.$.$.$.$.$.$.$.$.$.%.=.J $ .                     ",
"            # q L L L L H N 7 B L L <.,.@.$.$.$.$.$.$.$.$.$.$.$.$.$.$.%.X.J $ .                     ",
"            # 0 L L L L H N 7 C L L L >.*.$.$.$.$.$.$.$.$.$.$.$.$.$.$.%.X.J $ .                     ",
"            # 0 L L L L H N 7 B L L L ;.X.@.$.$.$.$.$.$.$.$.$.$.$.$.$.%.X.K 7 .                     ",
"            # q L L L L G N 7 C L L L K <.,.@.@.%.$.$.$.$.$.$.$.$.%.%.+...J $ .                     ",
"            # 0 L L L L H N 7 B L L L L L <.:.:.:.=.%.$.$.$.$.$.$.X.-.:.<.L $ .                     ",
"            # q L L L L H N 7 B L L L L L L L K K ;.,.=.X.X.=.X.X.<.K L L H $ .                     ",
"            # 9 Z L L L H N 7 B L L L L L L L L L L K K K L K L J L L L L L $ .                     ",
"            . X 7 G L H G N 7 B L L L L L L L L L L L L L L L L L L L L L H $ .                     ",
"              . # N B B N 8 $ C L L L L L L L L L L L L L L L L L Z C G L J $ .                     ",
"                . $ 7 7 7 # $ B L L L L L L L L G G Z Z G Z Z G Z N N Z L H $ .                     ",
"                          . # B L L L L L L L H B 0 9 9 9 9 9 9 9 q C G L H 7 .                     ",
"                            $ B L L L L L L H H 8 X . . . . # $ < C H L L H $ .                     ",
"                            $ B L L L L L L L H 8 X       # k H L L L L L L $ .                     ",
"                            # B L L L L L L H H 8 %       # q H L L L L L H $ .                     ",
"                            $ B L L L L L L L G 8 o       # q H L L L H G C # .                     ",
"                            $ B L L L L L L L H 8 X       # 0 G L L H S B 8 X                       ",
"                            $ B L L L L L L H G 8 %       % $ N H H G B 7 . .                       ",
"                            # N H L L L L L H Z $ X       . . # Z S B 8 . .                         ",
"                            . # k G H H H G C $ X .         . X $ $ # X .                           ",
"                            . . # 0 0 0 0 0 7 X .                                                   ",
"                              . . X X X X X . .                                                     ",
"                                                                                                    "
};
