/* XPM */
static char *_8976655e2ea460cc4bda6d22b60da20RGyxPHkJ5TxGoxhW[] = {
/* columns rows colors chars-per-pixel */
"50 50 17 1 ",
"  c #411F2F",
". c #452435",
"X c #492537",
"o c #4B2739",
"O c #4D293B",
"+ c #50273B",
"@ c #522B3E",
"# c #562E41",
"$ c #592F43",
"% c #573043",
"& c #5A3044",
"* c #62354A",
"= c #644B57",
"- c #684C57",
"; c #73515F",
": c #775363",
"> c #785464",
/* pixels */
"::::::>>>>>>>>::>>:::::::::::>>>>>>;--;;>>>>>>>;;;",
"$%$$%&%%$$$$##$$####$$$$##$$##$#&@@*@@@@@&*@@*@*$@",
"&$$$&%%&&%%$$$$$$$$$&$$$$$$$$$#$&&*@@*@@&&@&@@&&$@",
"$$$$$&%&$$$$$$$$$$$$$$$$#$$$$#$$&&@@*@&*&@&&*@*@$@",
"#@#$$&$$$$$&$$$$$$$$$$$$$$$$$$#$&&&*@**@&&&@&&&&$@",
"#O#$$$$$&$$$$$$$$$##$$Oo.#$$$$#$@*@&*@@@O&*@@@&&$@",
"%$$$$$$&$$&$$$$$$#o@$$$$$$$$$$$$@@*@@@*@@&&@&&@&$@",
"%$$%$$$$$$$$$$$$$$$$$$$$#@+@#$$$@O@@@X@@&&@*&&*@$@",
"&&&$$$$$$$$#$$$$$&$%$$$$###@#$$$@@&@&O@*@*@@*@&&$@",
"&%$$$$$$$$$#@@$$$&@@@@#$$$$$$$&$@@&@@@@&@@@@@*@&$@",
"%&%&####+#$++o+$$$#@OO+#@OOOO$&$@OO@&@&&@@oo@@@@++",
"%$$$$$###$$$$$$$$%$$$@X$#$o$##$$@*@@&&&&*@@*@@&@$@",
"##$$$$##oO+###$#+XXo#O.OO&oOoO#$@@@@&@@&@@O@@*@*$@",
"#$$$$$%####$$$$@@@@X#@#$&$@$&$$$O@O@@O@OOXO@*@&@$+",
"##$$$$$$$$$$$$o#@@@XO@$#@+O###$$@@@@@@@&@@X@@**@$@",
"oo#$$$$$$##$$#.@@@&@#ooo@@oXXXX@&@&@@@@@*@@OO@@@+ ",
"&$&&&&&&@++*@@o@%@%&$&$@$&$$$&$$@*@@*@@@*@@*&&&*$$",
"&&&@&&@%**@@**@*&&%%$&@$$$$$o@$$@@@@&**@oXO@&&&@$+",
"$@+@&&&@XXX@@*@&o&%&%@o@$$$&#@&$@@@@@@**@*&*@@@&@+",
"$$@*@&&&@@*@*@@*&&&@&&%%$$$@@$$$@&&*@*@@@@@@*@@&$+",
"$$$&O@@&*@@++oO%@@@%@@O@$&++O#@oOOO@@@@@OOO@@*@@$@",
"$$#@.XO@@@O@@@@@@@@&@@@%$&&@@$%%@*@@@@**&@@@@&*@$+",
"$$$$@@@*&@@@&&&&&@@&&&@@$$$$$$$%O@*@@@&@&&@@&O@@++",
"$&$$@&@@@&*@@@%&&@@@&&@@$&$$$$$%@&@@***@O@&@&o@O+$",
"$$#$$$$$&&&@@@&%$@@@@*@@$$@$$@@@@*@*@**@$$$$$@$@++",
"%$$$$$$$&&&@&&@@*$@*$@$$$$+&*@$*@@@@@@@@+@@$$$$@++",
"&$$##$o#&@+oo@+.@$$$$@$$&&@@@X@$@O@@@*@@@@+$$$$$+$",
"$$$X$$$$%&@@@*@@$$$$@*@@$$@*$$$$@@***@*@&&++$$$$$+",
"$#X o$$$&&&@@&@+$+X.@$**$$$$$$$$@@@@@@@O$&@+$+++$+",
"$$&o$$&$&&@&@@@++X@@*@@$**$$*@*$@@@@&@O@$@@O$$$$$+",
"##$#o##$&@@&&&@@$$&&$$$$@&&&@@@@&&&@&&&&&&@@$$$$$+",
"#$$$#OO#&+&&&@@X+@$&@$@+Xo@@Xoo@&@@O@@@@&@O@$$++++",
"$%&$$$$$$###o$$$$$$$$$#.##$#o$$&#.##+o+#$$$$$$$$$@",
".X.#$$$##### o.O$$$#o+#+#$##o#$$####$$$$$$+$$$$$$@",
"$###$$$###$####$#$$####$$$$#+$$$###oo+#$$#$$##o#$+",
"$$$&$$$$##$$$$$###$$$$$#$$$$#$$$##$#$###$$$$#o.#$+",
"%%%###O.o$$$#o.#$%#...+$$&####oo.####$$$$$$$#$#$$+",
"%$$$$#$#$$$$##+#$$$##$$$##$$$#########$$@oo@#$$$+ ",
"$$$&$$$$O$$$$$$$$$$&$$#$#o#$&#$#$$#o.#$$@X.o$$$$$+",
"&$$$$$$$$$$#$$$$$$o.#$$$#.#$#####$#####$$o@$$$$$$@",
"$#OXoO$$$#@oX#$$$$#.o#$$+.#$##++@$&&$$ooo@#&#@$$$@",
"%$$$$$$$#$$$$$$$$$###$$#$%$$#$%$&$&&&%@&$#$$#&$&@@",
"$$$$$$$$$###$$$$$$$$$$$#$$$#$$$%@@@&$$$@X#$$$$$@+.",
"#%$$$@#$OOoO$$$$$$$$$+oo$%#.#$$%+@+$$$$$%&$$$$$$$@",
"$&$$$$$$$$&$$$$%$$$$$$$$$#$#+%$$$&$$&$&$%&&%$$$&$@",
"$$$$$$$$$##&$$&$###$####$$+.+%$$@$@O@$$&@oOO#$$@@@",
"&&&$$$$$#$$$$%$$%#$&$$$$$###%$$$$$&&$$&&$@##$$$$$@",
"&&$$$$$$$$$$$$$$$$$$$$$$$$$$$$$$$$$$&&$&&&$$$$$$$@",
"&&$$$$&$&$$$&$$&%$$$$&%o$$$$$$%$$$$$$@$%&$$&$$%$$@",
"&#.#$$$$$$$$$$$$$$$$$$$%$$$$$$$$$%$$@@o@&&$$$$$$$@"
};
